<mxfile host="app.diagrams.net" modified="2022-06-12T21:27:59.020Z" agent="5.0 (Windows NT 10.0; Win64; x64) AppleWebKit/537.36 (KHTML, like Gecko) Chrome/102.0.5005.63 Safari/537.36" etag="B6iLDYuRFdlve3sME4L8" version="18.0.7" type="github">
  <diagram id="bSEXWe7huGikY-fucAUu" name="Page-1">
    <mxGraphModel dx="806" dy="875" grid="1" gridSize="10" guides="1" tooltips="1" connect="1" arrows="1" fold="1" page="1" pageScale="1" pageWidth="827" pageHeight="1169" math="0" shadow="0">
      <root>
        <mxCell id="0" />
        <mxCell id="1" parent="0" />
        <mxCell id="b73eLgdvhU1wZWccT1lE-79" style="edgeStyle=orthogonalEdgeStyle;rounded=0;orthogonalLoop=1;jettySize=auto;html=1;entryX=0.5;entryY=0;entryDx=0;entryDy=0;" edge="1" parent="1" source="CSsvvFtggRQ0JvxHW23I-3" target="CSsvvFtggRQ0JvxHW23I-4">
          <mxGeometry relative="1" as="geometry" />
        </mxCell>
        <mxCell id="CSsvvFtggRQ0JvxHW23I-3" value="Проверка целостности данных (наличие пропусков, NaN)" style="rounded=0;whiteSpace=wrap;html=1;" parent="1" vertex="1">
          <mxGeometry x="1670" y="218" width="180" height="40" as="geometry" />
        </mxCell>
        <mxCell id="b73eLgdvhU1wZWccT1lE-72" value="" style="edgeStyle=orthogonalEdgeStyle;rounded=0;orthogonalLoop=1;jettySize=auto;html=1;" edge="1" parent="1" source="CSsvvFtggRQ0JvxHW23I-4" target="b73eLgdvhU1wZWccT1lE-8">
          <mxGeometry relative="1" as="geometry" />
        </mxCell>
        <mxCell id="b73eLgdvhU1wZWccT1lE-80" style="edgeStyle=orthogonalEdgeStyle;rounded=0;orthogonalLoop=1;jettySize=auto;html=1;entryX=0.5;entryY=0;entryDx=0;entryDy=0;" edge="1" parent="1" source="CSsvvFtggRQ0JvxHW23I-4" target="b73eLgdvhU1wZWccT1lE-4">
          <mxGeometry relative="1" as="geometry" />
        </mxCell>
        <mxCell id="CSsvvFtggRQ0JvxHW23I-4" value="Поиск аномалий в данных" style="rounded=0;whiteSpace=wrap;html=1;" parent="1" vertex="1">
          <mxGeometry x="1670" y="300" width="180" height="40" as="geometry" />
        </mxCell>
        <mxCell id="b73eLgdvhU1wZWccT1lE-3" value="Модуль обработки данных&amp;nbsp;" style="strokeWidth=2;html=1;shape=mxgraph.flowchart.multi-document;whiteSpace=wrap;" vertex="1" parent="1">
          <mxGeometry x="1540" y="130" width="88" height="70" as="geometry" />
        </mxCell>
        <mxCell id="b73eLgdvhU1wZWccT1lE-82" style="edgeStyle=orthogonalEdgeStyle;rounded=0;orthogonalLoop=1;jettySize=auto;html=1;entryX=0.5;entryY=0;entryDx=0;entryDy=0;" edge="1" parent="1" source="b73eLgdvhU1wZWccT1lE-4" target="b73eLgdvhU1wZWccT1lE-5">
          <mxGeometry relative="1" as="geometry" />
        </mxCell>
        <mxCell id="b73eLgdvhU1wZWccT1lE-4" value="Кластеризация данных" style="rounded=0;whiteSpace=wrap;html=1;" vertex="1" parent="1">
          <mxGeometry x="1670" y="377.75" width="180" height="42.25" as="geometry" />
        </mxCell>
        <mxCell id="b73eLgdvhU1wZWccT1lE-83" style="edgeStyle=orthogonalEdgeStyle;rounded=0;orthogonalLoop=1;jettySize=auto;html=1;entryX=0.5;entryY=0;entryDx=0;entryDy=0;" edge="1" parent="1" source="b73eLgdvhU1wZWccT1lE-5" target="b73eLgdvhU1wZWccT1lE-6">
          <mxGeometry relative="1" as="geometry" />
        </mxCell>
        <mxCell id="b73eLgdvhU1wZWccT1lE-5" value="Feature analysis" style="rounded=0;whiteSpace=wrap;html=1;" vertex="1" parent="1">
          <mxGeometry x="1670" y="450" width="180" height="40" as="geometry" />
        </mxCell>
        <mxCell id="b73eLgdvhU1wZWccT1lE-84" style="edgeStyle=orthogonalEdgeStyle;rounded=0;orthogonalLoop=1;jettySize=auto;html=1;entryX=0.5;entryY=0;entryDx=0;entryDy=0;" edge="1" parent="1" source="b73eLgdvhU1wZWccT1lE-6" target="b73eLgdvhU1wZWccT1lE-7">
          <mxGeometry relative="1" as="geometry" />
        </mxCell>
        <mxCell id="b73eLgdvhU1wZWccT1lE-6" value="Построение моделей прогнозирования" style="rounded=0;whiteSpace=wrap;html=1;" vertex="1" parent="1">
          <mxGeometry x="1670" y="520" width="180" height="50" as="geometry" />
        </mxCell>
        <mxCell id="b73eLgdvhU1wZWccT1lE-73" value="" style="edgeStyle=orthogonalEdgeStyle;rounded=0;orthogonalLoop=1;jettySize=auto;html=1;" edge="1" parent="1" source="b73eLgdvhU1wZWccT1lE-7" target="b73eLgdvhU1wZWccT1lE-9">
          <mxGeometry relative="1" as="geometry" />
        </mxCell>
        <mxCell id="b73eLgdvhU1wZWccT1lE-85" style="edgeStyle=orthogonalEdgeStyle;rounded=0;orthogonalLoop=1;jettySize=auto;html=1;entryX=0.5;entryY=0;entryDx=0;entryDy=0;entryPerimeter=0;" edge="1" parent="1" source="b73eLgdvhU1wZWccT1lE-7" target="b73eLgdvhU1wZWccT1lE-10">
          <mxGeometry relative="1" as="geometry" />
        </mxCell>
        <mxCell id="b73eLgdvhU1wZWccT1lE-7" value="Оценка моделей прогнозирования" style="rounded=0;whiteSpace=wrap;html=1;" vertex="1" parent="1">
          <mxGeometry x="1670" y="600" width="180" height="50" as="geometry" />
        </mxCell>
        <mxCell id="b73eLgdvhU1wZWccT1lE-8" value="*csv с корректными данными для моделирования" style="strokeWidth=2;html=1;shape=mxgraph.flowchart.document2;whiteSpace=wrap;size=0.25;verticalAlign=top;" vertex="1" parent="1">
          <mxGeometry x="1528" y="275" width="100" height="90" as="geometry" />
        </mxCell>
        <mxCell id="b73eLgdvhU1wZWccT1lE-9" value="*pickle - лучшая модель для прогнозирования" style="strokeWidth=2;html=1;shape=mxgraph.flowchart.document2;whiteSpace=wrap;size=0.25;verticalAlign=top;" vertex="1" parent="1">
          <mxGeometry x="1528" y="580" width="100" height="90" as="geometry" />
        </mxCell>
        <mxCell id="b73eLgdvhU1wZWccT1lE-10" value="Конец" style="strokeWidth=2;html=1;shape=mxgraph.flowchart.terminator;whiteSpace=wrap;" vertex="1" parent="1">
          <mxGeometry x="1675" y="690" width="170" height="35" as="geometry" />
        </mxCell>
        <mxCell id="b73eLgdvhU1wZWccT1lE-23" style="edgeStyle=orthogonalEdgeStyle;rounded=0;orthogonalLoop=1;jettySize=auto;html=1;entryX=0.5;entryY=0;entryDx=0;entryDy=0;" edge="1" parent="1" source="b73eLgdvhU1wZWccT1lE-12" target="b73eLgdvhU1wZWccT1lE-16">
          <mxGeometry relative="1" as="geometry" />
        </mxCell>
        <mxCell id="b73eLgdvhU1wZWccT1lE-12" value="Обработка данных" style="rounded=0;whiteSpace=wrap;html=1;" vertex="1" parent="1">
          <mxGeometry x="2140" y="158" width="120" height="60" as="geometry" />
        </mxCell>
        <mxCell id="b73eLgdvhU1wZWccT1lE-14" value="Модуль &#xa;обработки &#xa;данных" style="shape=module;align=left;spacingLeft=20;align=center;verticalAlign=middle;" vertex="1" parent="1">
          <mxGeometry x="1975" y="165" width="120" height="50" as="geometry" />
        </mxCell>
        <mxCell id="b73eLgdvhU1wZWccT1lE-24" style="edgeStyle=orthogonalEdgeStyle;rounded=0;orthogonalLoop=1;jettySize=auto;html=1;entryX=0.5;entryY=0;entryDx=0;entryDy=0;" edge="1" parent="1" source="b73eLgdvhU1wZWccT1lE-16" target="b73eLgdvhU1wZWccT1lE-17">
          <mxGeometry relative="1" as="geometry" />
        </mxCell>
        <mxCell id="b73eLgdvhU1wZWccT1lE-16" value="Создание имитационной модели в Power Factory" style="rounded=0;whiteSpace=wrap;html=1;" vertex="1" parent="1">
          <mxGeometry x="2140" y="246" width="120" height="60" as="geometry" />
        </mxCell>
        <mxCell id="b73eLgdvhU1wZWccT1lE-25" value="" style="edgeStyle=orthogonalEdgeStyle;rounded=0;orthogonalLoop=1;jettySize=auto;html=1;" edge="1" parent="1" source="b73eLgdvhU1wZWccT1lE-17" target="b73eLgdvhU1wZWccT1lE-18">
          <mxGeometry relative="1" as="geometry" />
        </mxCell>
        <mxCell id="b73eLgdvhU1wZWccT1lE-17" value="Технико-экономическая оценка" style="rounded=0;whiteSpace=wrap;html=1;" vertex="1" parent="1">
          <mxGeometry x="2140" y="334" width="120" height="60" as="geometry" />
        </mxCell>
        <mxCell id="b73eLgdvhU1wZWccT1lE-26" value="" style="edgeStyle=orthogonalEdgeStyle;rounded=0;orthogonalLoop=1;jettySize=auto;html=1;" edge="1" parent="1" source="b73eLgdvhU1wZWccT1lE-18" target="b73eLgdvhU1wZWccT1lE-19">
          <mxGeometry relative="1" as="geometry" />
        </mxCell>
        <mxCell id="b73eLgdvhU1wZWccT1lE-18" value="Формирование отчета с рекомендациями" style="rounded=0;whiteSpace=wrap;html=1;" vertex="1" parent="1">
          <mxGeometry x="2140" y="422" width="120" height="60" as="geometry" />
        </mxCell>
        <mxCell id="b73eLgdvhU1wZWccT1lE-19" value="Конец" style="strokeWidth=1;html=1;shape=mxgraph.flowchart.terminator;whiteSpace=wrap;" vertex="1" parent="1">
          <mxGeometry x="2150" y="520" width="100" height="40" as="geometry" />
        </mxCell>
        <mxCell id="b73eLgdvhU1wZWccT1lE-22" style="edgeStyle=orthogonalEdgeStyle;rounded=0;orthogonalLoop=1;jettySize=auto;html=1;entryX=0.5;entryY=0;entryDx=0;entryDy=0;" edge="1" parent="1" source="b73eLgdvhU1wZWccT1lE-20" target="b73eLgdvhU1wZWccT1lE-12">
          <mxGeometry relative="1" as="geometry" />
        </mxCell>
        <mxCell id="b73eLgdvhU1wZWccT1lE-20" value="Начало" style="strokeWidth=1;html=1;shape=mxgraph.flowchart.terminator;whiteSpace=wrap;" vertex="1" parent="1">
          <mxGeometry x="2150" y="80" width="100" height="40" as="geometry" />
        </mxCell>
        <mxCell id="b73eLgdvhU1wZWccT1lE-27" value="Модуль &#xa;расчета&#xa; платы за ЭЭ" style="shape=module;align=left;spacingLeft=20;align=center;verticalAlign=middle;" vertex="1" parent="1">
          <mxGeometry x="1975" y="279" width="120" height="73" as="geometry" />
        </mxCell>
        <mxCell id="b73eLgdvhU1wZWccT1lE-29" value="Модуль &#xa;формирования&#xa; финансово-&#xa;экономической &#xa;модели" style="shape=module;align=left;spacingLeft=20;align=center;verticalAlign=middle;" vertex="1" parent="1">
          <mxGeometry x="1975" y="369" width="120" height="77.5" as="geometry" />
        </mxCell>
        <mxCell id="b73eLgdvhU1wZWccT1lE-31" value="" style="shape=curlyBracket;whiteSpace=wrap;html=1;rounded=1;flipH=1;strokeWidth=1;" vertex="1" parent="1">
          <mxGeometry x="2110" y="269" width="20" height="190" as="geometry" />
        </mxCell>
        <mxCell id="b73eLgdvhU1wZWccT1lE-32" value="" style="shape=curlyBracket;whiteSpace=wrap;html=1;rounded=1;flipH=1;strokeWidth=1;" vertex="1" parent="1">
          <mxGeometry x="2110" y="269" width="20" height="190" as="geometry" />
        </mxCell>
        <mxCell id="b73eLgdvhU1wZWccT1lE-33" value="Модуль &#xa;расчета&#xa; платы за ЭЭ" style="shape=module;align=left;spacingLeft=20;align=center;verticalAlign=middle;" vertex="1" parent="1">
          <mxGeometry x="1975" y="279" width="120" height="73" as="geometry" />
        </mxCell>
        <mxCell id="b73eLgdvhU1wZWccT1lE-34" value="Модуль &#xa;формирования&#xa; финансово-&#xa;экономической &#xa;модели" style="shape=module;align=left;spacingLeft=20;align=center;verticalAlign=middle;" vertex="1" parent="1">
          <mxGeometry x="1975" y="369" width="120" height="77.5" as="geometry" />
        </mxCell>
        <mxCell id="b73eLgdvhU1wZWccT1lE-35" value="Модуль &#xa;расчета&#xa; платы за ЭЭ" style="shape=module;align=left;spacingLeft=20;align=center;verticalAlign=middle;" vertex="1" parent="1">
          <mxGeometry x="1975" y="279" width="120" height="73" as="geometry" />
        </mxCell>
        <mxCell id="b73eLgdvhU1wZWccT1lE-36" value="" style="shape=curlyBracket;whiteSpace=wrap;html=1;rounded=1;flipH=1;strokeWidth=1;" vertex="1" parent="1">
          <mxGeometry x="2110" y="148" width="20" height="80" as="geometry" />
        </mxCell>
        <mxCell id="b73eLgdvhU1wZWccT1lE-71" value="" style="edgeStyle=orthogonalEdgeStyle;rounded=0;orthogonalLoop=1;jettySize=auto;html=1;" edge="1" parent="1" source="b73eLgdvhU1wZWccT1lE-65" target="b73eLgdvhU1wZWccT1lE-3">
          <mxGeometry relative="1" as="geometry" />
        </mxCell>
        <mxCell id="b73eLgdvhU1wZWccT1lE-77" style="edgeStyle=orthogonalEdgeStyle;rounded=0;orthogonalLoop=1;jettySize=auto;html=1;entryX=0.5;entryY=0;entryDx=0;entryDy=0;" edge="1" parent="1" source="b73eLgdvhU1wZWccT1lE-65" target="CSsvvFtggRQ0JvxHW23I-3">
          <mxGeometry relative="1" as="geometry" />
        </mxCell>
        <mxCell id="b73eLgdvhU1wZWccT1lE-65" value="Формирование датафрейма для анализа" style="rounded=0;whiteSpace=wrap;html=1;" vertex="1" parent="1">
          <mxGeometry x="1670" y="140" width="180" height="50" as="geometry" />
        </mxCell>
        <mxCell id="b73eLgdvhU1wZWccT1lE-74" value="" style="edgeStyle=orthogonalEdgeStyle;rounded=0;orthogonalLoop=1;jettySize=auto;html=1;" edge="1" parent="1" source="b73eLgdvhU1wZWccT1lE-70" target="b73eLgdvhU1wZWccT1lE-65">
          <mxGeometry relative="1" as="geometry" />
        </mxCell>
        <mxCell id="b73eLgdvhU1wZWccT1lE-70" value="Начало" style="strokeWidth=2;html=1;shape=mxgraph.flowchart.terminator;whiteSpace=wrap;" vertex="1" parent="1">
          <mxGeometry x="1675" y="80" width="170" height="35" as="geometry" />
        </mxCell>
      </root>
    </mxGraphModel>
  </diagram>
</mxfile>
